# xmcd
#
# Track frame offsets:
#	150
#	12602
#	25595
#	33848
#	53113
#	62900
#	80027
#	100643
#	115525
#	132144
#	151678
#	171791
#
# Disc length: 2596 seconds
#
# Revision: 1
# Processed by: cddbd v1.5.2PL0 Copyright (c) Steve Scherf et al.
# Submitted via: audiograbber 1.83.01
#
DISCID=880a220c
DTITLE=Marco R Wagner - Music Love Magic
DYEAR=1900
DGENRE=
TTITLE0=Fool Again
TTITLE1=Febuary
TTITLE2=1984 -1:49
TTITLE3=Sad Eyes And A Smile
TTITLE4=Whem I´m With You
TTITLE5=Her Ursa Major
TTITLE6=Poet, Painter And Cowboy
TTITLE7=Yolanda
TTITLE8=When It´s Too Late, It´s Too Late
TTITLE9=Music City Blues
TTITLE10=One More Day
TTITLE11=In A Rio Mood
EXTD=
EXTT0=
EXTT1=
EXTT2=
EXTT3=
EXTT4=
EXTT5=
EXTT6=
EXTT7=
EXTT8=
EXTT9=
EXTT10=
EXTT11=
PLAYORDER=
